<?xml version="1.0" standalone="no"?>
<!DOCTYPE svg PUBLIC "-//W3C//DTD SVG 20010904//EN"
 "http://www.w3.org/TR/2001/REC-SVG-20010904/DTD/svg10.dtd">
<svg version="1.0" xmlns="http://www.w3.org/2000/svg"
 width="700.000000pt" height="700.000000pt" viewBox="0 0 700.000000 700.000000"
 preserveAspectRatio="xMidYMid meet">
<metadata>
Created by potrace 1.11, written by Peter Selinger 2001-2013
</metadata>
<g transform="translate(0.000000,700.000000) scale(0.100000,-0.100000)"
fill="#000000" stroke="none">
<path d="M3862 6968 c-6 -18 -41 -150 -78 -293 -36 -143 -83 -324 -103 -402
l-37 -141 105 -27 c58 -15 113 -28 121 -30 8 -2 78 -20 155 -40 174 -46 165
-44 256 -52 135 -11 195 35 238 182 29 100 14 173 -45 211 l-25 17 39 17 c21
9 46 29 55 43 23 35 48 148 48 215 0 100 -70 156 -265 212 -60 18 -117 33
-127 35 -16 3 -275 71 -311 81 -12 3 -19 -4 -26 -28z m65 -214 c32 -8 146 -38
253 -65 183 -47 272 -79 312 -112 45 -36 38 -106 -14 -133 -47 -24 -113 -18
-278 26 -85 23 -162 43 -170 45 -40 8 -225 57 -228 60 -4 4 37 175 45 188 6
10 14 9 80 -9z m218 -309 c99 -26 194 -50 210 -55 123 -29 185 -129 115 -182
-55 -41 -79 -37 -555 86 -188 49 -176 44 -171 69 5 25 35 146 41 164 3 9 28 5
92 -12 48 -13 169 -44 268 -70z"/>
<path d="M2734 6952 c-8 -5 -9 -29 -3 -77 4 -38 10 -101 14 -140 3 -38 9 -88
11 -110 3 -22 8 -60 10 -85 4 -55 14 -152 19 -200 2 -19 6 -62 10 -95 3 -33 8
-69 10 -80 2 -11 4 -39 4 -61 l1 -42 38 4 c20 2 55 6 77 8 22 3 67 8 100 11
33 3 74 8 90 10 17 2 63 7 104 10 41 4 83 8 93 10 10 2 55 7 101 11 45 3 86 9
90 11 7 4 1 90 -9 143 -1 8 -3 29 -3 46 -1 31 -2 32 -38 28 -88 -8 -151 -15
-198 -20 -27 -3 -66 -7 -85 -8 -19 -2 -87 -9 -150 -16 -183 -18 -193 -18 -195
5 -1 11 -5 54 -9 95 -4 41 -9 93 -11 115 -3 22 -7 63 -9 90 -3 28 -10 95 -16
150 -10 87 -14 128 -19 183 -1 14 -11 15 -27 4z"/>
<path d="M5044 6507 c-32 -45 -62 -86 -67 -92 -49 -61 -151 -210 -171 -250
-76 -151 -76 -336 -2 -454 49 -77 146 -150 221 -166 82 -18 188 -8 268 24 46
18 129 76 173 119 38 38 289 378 300 407 3 7 -1 15 -9 18 -10 4 -56 -52 -150
-181 -150 -208 -173 -228 -274 -238 -152 -16 -332 81 -428 231 -58 90 -75 186
-45 252 9 21 71 112 137 203 144 200 136 185 119 199 -10 9 -25 -7 -72 -72z"/>
<path d="M1685 6561 c-3 -6 5 -34 19 -63 49 -106 96 -210 96 -213 0 -2 15 -36
34 -77 77 -164 196 -431 196 -437 0 -4 5 -12 11 -18 7 -7 27 -3 67 17 31 15
95 44 142 65 47 20 114 51 150 67 36 17 110 50 165 75 55 25 104 48 108 52 4
5 -5 37 -21 72 -16 35 -34 79 -41 97 -8 17 -18 32 -23 32 -6 0 -141 -59 -300
-131 -159 -72 -296 -128 -304 -125 -8 3 -14 11 -14 19 0 7 -13 40 -28 73 -16
32 -41 86 -56 119 -178 395 -183 404 -201 376z"/>
<path d="M1220 6132 c-132 -17 -262 -101 -364 -236 -60 -79 -85 -147 -93 -252
-15 -223 142 -432 366 -484 111 -26 259 3 358 71 56 39 53 36 125 117 85 95
128 201 129 317 1 206 -128 386 -322 446 -60 19 -148 28 -199 21z m331 -132
c72 -34 91 -156 43 -277 -70 -176 -263 -371 -428 -432 -106 -39 -184 -34 -238
17 -37 34 -51 82 -44 152 10 117 95 260 226 384 107 99 214 161 315 178 28 5
95 -7 126 -22z"/>
<path d="M5868 5594 c-57 -18 -98 -63 -98 -109 0 -56 23 -104 163 -336 154
-257 173 -293 185 -346 11 -49 0 -81 -34 -93 -80 -31 -243 130 -377 371 -40
72 -59 161 -56 264 4 103 -7 139 -37 115 -32 -27 -94 -133 -111 -189 -16 -57
-20 -156 -8 -213 20 -93 92 -224 164 -296 55 -56 105 -86 183 -113 145 -49
318 14 318 115 0 64 -29 127 -160 342 -73 121 -146 246 -162 279 -46 98 -35
155 32 155 63 0 180 -107 272 -250 122 -188 158 -299 137 -430 -7 -44 -6 -57
8 -72 21 -23 33 -13 85 67 92 141 96 299 14 463 -68 134 -174 234 -288 272
-66 21 -169 24 -230 4z"/>
<path d="M351 5203 l-42 -106 38 -40 c56 -58 76 -80 203 -217 136 -147 238
-257 298 -322 71 -75 102 -111 99 -114 -1 -1 -58 -5 -127 -9 -69 -3 -145 -8
-170 -10 -25 -2 -88 -6 -140 -10 -52 -3 -120 -7 -150 -10 -30 -2 -107 -7 -170
-11 -63 -4 -128 -8 -144 -9 -29 -1 -59 -34 -34 -36 16 -2 180 7 298 16 39 3
243 16 305 20 85 5 281 18 305 20 14 2 34 3 46 4 17 1 29 21 64 112 l42 111
-43 45 c-24 25 -53 55 -64 67 -11 12 -45 49 -75 82 -31 32 -87 93 -125 134
-39 42 -122 132 -186 200 -64 69 -129 140 -144 158 -15 17 -30 32 -35 32 -4 0
-27 -48 -49 -107z"/>
<path d="M6853 4673 c-73 -35 -75 -141 -3 -178 46 -24 78 -19 116 19 35 35 42
64 24 110 -18 50 -86 74 -137 49z"/>
<path d="M6595 4515 c-60 -19 -249 -75 -420 -125 -170 -51 -313 -95 -317 -99
-4 -3 -4 -12 1 -19 6 -10 56 1 227 52 120 36 311 93 424 126 112 33 206 63
208 65 2 2 0 10 -5 18 -7 13 -25 10 -118 -18z"/>
<path d="M6330 4087 c-25 -4 -50 -9 -56 -10 -6 -2 -40 -17 -75 -34 -106 -52
-185 -142 -228 -258 -28 -74 -34 -215 -15 -316 24 -125 106 -244 216 -311 26
-16 48 -30 48 -31 0 -1 -48 -2 -108 -2 -127 0 -142 -2 -142 -24 0 -15 20 -16
218 -13 119 1 221 4 226 6 6 1 8 82 7 192 -4 279 -3 268 -24 272 -17 4 -18 -8
-15 -208 2 -116 1 -213 -3 -216 -14 -8 -55 14 -87 47 -80 82 -124 238 -123
439 0 180 39 308 118 386 123 123 273 34 339 -203 22 -78 27 -316 9 -400 -16
-73 -64 -177 -98 -214 -28 -29 -27 -79 2 -79 26 0 119 53 173 100 194 167 219
505 55 714 -97 123 -283 192 -437 163z"/>
<path d="M754 3180 c-55 -22 -73 -109 -31 -148 29 -27 78 -38 106 -23 26 14
26 10 1 -38 -16 -32 -206 -231 -228 -239 -4 -1 -15 20 -24 46 -21 57 -51 93
-96 116 -55 28 -99 27 -184 -4 -195 -71 -237 -151 -184 -350 9 -30 48 -154 89
-275 59 -176 77 -219 91 -217 25 4 817 270 823 276 3 3 3 12 0 20 -5 12 -36 5
-179 -44 -95 -32 -176 -55 -179 -52 -4 4 -39 104 -78 222 l-71 214 121 120
c66 66 129 137 140 159 23 45 24 125 2 169 -21 43 -76 65 -119 48z m-284 -320
c13 -7 32 -22 42 -34 16 -19 214 -595 206 -600 -11 -8 -238 -79 -241 -75 -2 2
-45 129 -95 282 -59 177 -92 293 -92 321 0 100 91 153 180 106z"/>
<path d="M5911 2938 c-5 -13 -44 -111 -86 -218 -42 -107 -92 -233 -110 -280
-18 -47 -42 -108 -53 -136 l-21 -52 47 -17 c26 -10 61 -23 77 -30 88 -36 82
-36 95 -7 7 15 32 79 57 142 25 63 78 198 118 300 39 102 74 190 76 196 5 14
189 -54 189 -69 0 -8 -90 -246 -110 -292 -5 -11 -32 -78 -60 -149 -40 -100
-48 -131 -38 -137 7 -5 16 -5 20 -1 4 4 57 134 118 289 l111 281 86 -34 c48
-18 90 -37 94 -41 4 -4 -8 -46 -26 -93 -114 -286 -225 -572 -225 -579 0 -4 45
-25 101 -46 83 -31 102 -36 110 -24 5 8 9 18 9 22 0 5 6 23 14 40 8 18 66 165
130 326 86 221 112 298 104 308 -6 7 -14 13 -19 13 -8 0 -154 57 -563 219
-126 50 -231 91 -233 91 -2 0 -7 -10 -12 -22z"/>
<path d="M1113 2129 l-82 -70 157 -187 c86 -103 177 -212 202 -242 25 -30 59
-70 76 -89 24 -26 29 -37 21 -45 -48 -45 -136 -116 -144 -116 -6 0 -27 21 -49
47 -323 388 -353 422 -365 407 -9 -11 -9 -18 3 -32 8 -9 62 -73 119 -142 57
-69 106 -127 109 -130 3 -3 25 -30 50 -60 25 -30 56 -68 70 -83 14 -16 25 -32
25 -36 0 -4 -33 -36 -73 -71 l-74 -63 -27 29 c-14 16 -47 54 -72 84 -25 30
-119 142 -208 248 l-163 192 -36 -29 c-20 -16 -59 -49 -85 -73 l-48 -43 239
-285 c131 -157 243 -285 249 -285 10 0 47 29 148 115 23 19 63 53 89 75 27 22
54 45 60 50 6 6 65 55 131 110 134 112 174 146 221 190 l33 30 -135 160 c-74
88 -183 217 -242 288 -58 70 -109 127 -112 127 -3 -1 -42 -32 -87 -71z"/>
<path d="M5590 2072 c-36 -31 -75 -66 -88 -78 l-23 -21 20 -114 c22 -122 27
-152 34 -184 3 -11 8 -40 12 -65 4 -25 9 -54 11 -65 10 -55 54 -294 58 -320 3
-16 10 -52 15 -80 5 -27 8 -51 7 -53 -2 -1 -18 15 -36 35 -80 90 -195 218
-200 223 -3 3 -23 25 -44 50 -22 25 -68 77 -104 117 -35 39 -78 88 -96 107
l-31 35 -78 -72 -77 -72 15 -85 c8 -47 17 -96 20 -110 3 -14 12 -61 20 -105
18 -104 19 -107 59 -331 19 -105 38 -203 42 -217 6 -25 -10 -40 -18 -18 -1 5
-23 31 -48 58 -25 26 -97 107 -160 178 -63 72 -117 132 -120 135 -7 7 -153
174 -157 179 -2 3 -10 -2 -18 -10 -12 -12 -3 -26 62 -99 42 -47 106 -119 143
-160 37 -41 127 -142 201 -225 73 -82 142 -160 154 -172 l20 -23 45 41 c25 23
60 55 78 71 l34 29 -11 62 c-6 34 -13 73 -16 87 -6 30 -27 144 -61 335 -13 77
-35 200 -48 273 -13 74 -20 130 -17 125 9 -10 242 -274 256 -289 42 -46 158
-178 195 -220 25 -29 48 -53 52 -53 3 -1 28 19 55 43 26 24 61 54 76 67 l28
24 -25 140 c-26 144 -102 570 -111 615 -22 124 -45 255 -45 262 0 17 -17 6
-80 -50z"/>
<path d="M2129 1293 c-7 -16 -28 -53 -45 -83 -17 -30 -46 -82 -63 -115 -30
-55 -192 -346 -196 -353 -2 -1 -83 42 -182 98 -99 55 -184 100 -189 100 -11 0
-107 -170 -104 -185 1 -5 25 -23 53 -39 29 -15 196 -108 372 -207 341 -190
355 -197 355 -181 0 6 22 49 49 96 36 61 46 87 38 94 -13 10 -146 84 -262 147
-38 21 -76 43 -83 49 -14 14 -29 -15 171 345 75 135 134 248 131 253 -10 16
-31 7 -45 -19z"/>
<path d="M4031 1090 c-92 -25 -149 -57 -195 -112 -74 -86 -75 -161 -1 -454 31
-120 58 -232 61 -248 9 -55 -16 -89 -80 -110 -12 -4 -16 -10 -10 -16 6 -6 60
4 144 25 73 19 135 35 137 35 2 0 3 7 3 15 0 11 -5 12 -24 5 -32 -12 -65 -5
-89 19 -12 11 -31 65 -48 132 -15 63 -42 168 -58 234 -34 131 -43 213 -30 260
20 72 102 136 204 160 118 28 195 -18 244 -143 25 -62 131 -481 131 -515 0
-32 -22 -59 -59 -72 -27 -9 -41 -33 -16 -28 34 6 218 53 260 65 28 9 54 16 60
16 5 0 11 6 13 12 3 9 -7 10 -37 5 -49 -8 -82 9 -99 52 -6 15 -37 127 -67 248
-60 235 -91 318 -133 358 -75 71 -186 91 -311 57z"/>
<path d="M3066 1012 c-4 -7 -16 -86 -31 -207 -3 -22 -16 -128 -30 -235 -14
-107 -25 -201 -25 -208 0 -13 -24 -12 -110 3 -14 2 -50 7 -80 10 -30 3 -66 8
-80 10 -14 2 -50 7 -80 11 -30 3 -58 8 -62 10 -11 7 -17 -10 -24 -67 -3 -30
-10 -76 -14 -102 -4 -26 -4 -49 -1 -51 6 -4 40 -9 141 -22 30 -4 64 -8 75 -9
11 -2 45 -6 75 -9 30 -4 66 -8 80 -11 14 -2 50 -7 80 -10 30 -3 62 -8 70 -10
8 -2 43 -7 77 -10 35 -4 73 -9 85 -10 13 -2 46 -6 73 -10 28 -3 67 -8 88 -11
31 -5 37 -3 38 13 1 10 3 27 4 38 2 11 6 45 9 75 4 30 9 63 12 73 3 9 2 17 -3
18 -4 0 -17 2 -28 3 -19 3 -222 30 -310 42 -78 10 -80 11 -78 30 8 77 15 133
18 154 10 62 25 170 30 220 3 30 7 66 10 80 2 14 7 45 10 70 3 25 8 61 11 81
4 27 1 38 -10 42 -8 3 -17 3 -20 -1z"/>
<path d="M4312 170 c-36 -34 -24 -92 24 -110 51 -20 104 33 84 84 -17 47 -72
60 -108 26z"/>
<path d="M4120 129 c-31 -12 -40 -26 -40 -62 0 -57 69 -88 110 -47 29 29 26
74 -6 99 -30 24 -30 23 -64 10z"/>
</g>
</svg>
