<svg xmlns="http://www.w3.org/2000/svg" data-name="Group 3043" viewBox="0 0 102 101.799" fill="#ffffff"><path d="M14.358 38.258L0 39.207l.219-.554 13.676-.9-9.368-10.1 1.247-3.187 9.831 10.6z" data-name="Path 1558"/><path d="M23.329 14.46a6.823 6.823 0 01.048 9.728l-.492.509a6.787 6.787 0 11-9.755-9.43l.49-.509a6.816 6.816 0 019.709-.298zm-.337.349c-1.391-1.346-4.521-.385-6.925 2.1l-.7.723c-2.419 2.5-3.274 5.664-1.883 7.01s4.535.395 6.954-2.106l.7-.719c2.406-2.491 3.26-5.65 1.854-7.008z" data-name="Path 1559"/><path d="M24.431 6.426l.492-.223 4.033 8.9 8.8-3.988 1.347 2.972-9.292 4.211z" data-name="Path 1560"/><path d="M39.673.668l.535-.054 1 9.715 9.606-.988.331 3.241-10.141 1.042z" data-name="Path 1561"/><path d="M60.141 14.433l-7.037-1.828L56.378 0l6.464 1.679c4.7 1.222 4.448 2.636 3.642 5.734a2.227 2.227 0 01-1.633 1.4 2.306 2.306 0 011.236 2.495c-.683 2.61-1.138 4.377-5.946 3.125zm5.445-3.485c.285-1.1-1.248-1.862-1.877-2.026L55.19 6.708l-.748 2.882 8.085 2.1c1.657.43 2.833.122 3.058-.742zm-2.317-2.7c.88.229 2.344.149 2.615-.9.289-1.114-1.215-1.832-2.295-2.113l-7.51-1.95-.752 2.9z" data-name="Path 1562"/><path d="M73.34 17.658c2.5 1.815 5.48 1.846 6.673.209l3.688-5.069.432.32-3.661 5.036c-1.937 2.662-5.933 4.4-9.031 2.144l-.014-.012c-3.173-2.3-2.615-6.679-.742-9.25l3.663-5.038.434.318-3.687 5.065c-1.178 1.626-.236 4.47 2.245 6.277z" data-name="Path 1563"/><path d="M92.703 23.772c1.832 3 1.646 6.121-.8 8.68l-.535-.589c.651-2.183-.122-4.2-1.224-6l-.525-.856c-1.056-1.73-3.373-4.455-4.659-3.671-.666.407-.465 1.42 1.29 4.289l2.625 4.3c.62 1.017 1.654 2.956.1 3.907-2.206 1.346-5.678.548-7.713-2.787-2.218-3.63-1.453-6.518.693-8.853l.525.575a7.313 7.313 0 001.205 6.038l.521.858c1.143 1.873 3.448 4.322 4.653 3.586 1.063-.649-.13-2.6-1.552-4.934l-2.162-3.539c-.9-1.476-1.73-3.192-.32-4.054 1.347-.828 5.279-1.204 7.878 3.05z" data-name="Path 1564"/><path d="M97.912 36.185l-12.485 3.7-.153-.517 12.483-3.7zm3.005.391a1.489 1.489 0 111.023-1.856 1.493 1.493 0 01-1.028 1.855z" data-name="Path 1565"/><path d="M89.84 49.07l.017 1c.031 2.214.974 5.937 3.192 6.241l-.087-6.228.537-.006.1 6.766-6.619.093v-.54l3.847-.052a6.941 6.941 0 01-4.215-6.282l-.015-.874A6.778 6.778 0 11100.151 49l.008.872a6.926 6.926 0 01-5.073 6.766l-.18-.854c1.213-1.021 2.038-3.245 2-5.811l-.017-1c-.047-3.456-1.666-6.3-3.617-6.272-1.938.027-3.481 2.908-3.432 6.369z" data-name="Path 1566"/><path d="M85.24 70.229l-3.026-1.195 4.06-10.294 12.113 4.777-4.062 10.3-3.028-1.195 3.876-9.831-2.784-1.1-3.318 8.409-.5-.2 3.318-8.409-2.768-1.091z" data-name="Path 1567"/><path d="M82.201 86.102l-2.366-12.988 2.706-2.412 2.71 15.022-2.29 2.042-7.46-8.368 2.327 12.946-2.29 2.042-8.661-9.713.4-.36 7.5 8.407-2.362-12.985 2.286-2.042z" data-name="Path 1568"/><path d="M59.62 98.381l.085.325-4.229 1.071-.081-.325.448-.114a1.255 1.255 0 00.934-.864 2.776 2.776 0 00-.139-1.315l-1.228-4.843a8.842 8.842 0 01-.351-2.88 3.611 3.611 0 01.969-2.053 5.151 5.151 0 012.658-1.431 5.529 5.529 0 013.14-.072 3.772 3.772 0 011.9 1.457 10.311 10.311 0 011.027 2.869l1.187 4.666a2.382 2.382 0 00.67 1.366 1.284 1.284 0 001.069.1l.449-.114.083.326-5.162 1.309-.081-.327.457-.114a1.222 1.222 0 00.939-.736 2.674 2.674 0 00-.116-1.377l-1.319-5.2a11.957 11.957 0 00-.531-1.563 3.532 3.532 0 00-.819-1.282 2.589 2.589 0 00-1.174-.583 3.42 3.42 0 00-1.627.066 4.33 4.33 0 00-1.966 1.044 2.8 2.8 0 00-.932 1.627 7.782 7.782 0 00.345 2.782l1.226 4.835a2.561 2.561 0 00.6 1.337 1.333 1.333 0 001.12.128zm1.019 3.386a.94.94 0 01-.744-.11.963.963 0 01-.451-.61.98.98 0 01.709-1.193.974.974 0 01.75.105.989.989 0 01-.265 1.807zm3.109-.79a.938.938 0 01-.753-.108.969.969 0 01-.453-.608.986.986 0 011.912-.486.966.966 0 01-.105.75.942.942 0 01-.601.452z" data-name="Path 1569"/><path d="M45.174 87.096l-1.263 9.684 6.164.8-.422 3.227-12.879-1.672.422-3.229 6.181.8 1.261-9.687z" data-name="Path 1570"/><path d="M31.791 82.79l-4.75 8.535 5.43 3.02-1.583 2.846-11.349-6.315 1.583-2.846 5.447 3.033 4.75-8.535z" data-name="Path 1571"/><path d="M15.03 71.857l2.495-2.094 7.113 8.483-9.982 8.368-7.111-8.481 2.5-2.094 6.791 8.1 2.294-1.927-5.809-6.929.411-.347 5.809 6.931 2.284-1.912z" data-name="Path 1572"/><path d="M12.814 56.395c.641 1.924-.43 3.008-1.765 4.238a16.344 16.344 0 00-1.189 1.2l-.982.936 2.16 6.474 5.189-1.73.174.513-12.355 4.12-.172-.511.019-.006-1.943-5.823c-1.414-4.233-.378-5.131 3.187-6.319a2.684 2.684 0 013.305 1.974l.246.744 2.208-2.148a4.843 4.843 0 001.587-2.3 1.358 1.358 0 11-1.412-2.237 1.416 1.416 0 011.743.875zm-7.489 3.6c-1.271.426-1.288 1.844-.823 3.237l2.46 7.376 3.566-1.189-2.6-7.783a2.137 2.137 0 00-2.603-1.644z" data-name="Path 1573"/></svg>